<?xml version="1.0" encoding="UTF-8" standalone="no"?>
<svg
   xmlns:dc="http://purl.org/dc/elements/1.1/"
   xmlns:cc="http://creativecommons.org/ns#"
   xmlns:rdf="http://www.w3.org/1999/02/22-rdf-syntax-ns#"
   xmlns:svg="http://www.w3.org/2000/svg"
   xmlns="http://www.w3.org/2000/svg"
   xmlns:sodipodi="http://sodipodi.sourceforge.net/DTD/sodipodi-0.dtd"
   xmlns:inkscape="http://www.inkscape.org/namespaces/inkscape"
   width="12in"
   height="12in"
   viewBox="0 0 864 864"
   id="svg2"
   version="1.1"
   inkscape:version="0.91 r13725"
   sodipodi:docname="LauncherIcon2.svg"
   inkscape:export-filename="/home/familie/AndroidStudioProjects/VelocityCalculator/app/src/main/res/mipmap-mdpi/ic_launcher.png"
   inkscape:export-xdpi="4"
   inkscape:export-ydpi="4">
  <metadata
     id="metadata9">
    <rdf:RDF>
      <cc:Work
         rdf:about="">
        <dc:format>image/svg+xml</dc:format>
        <dc:type
           rdf:resource="http://purl.org/dc/dcmitype/StillImage" />
      </cc:Work>
    </rdf:RDF>
  </metadata>
  <defs
     id="defs7" />
  <sodipodi:namedview
     pagecolor="#ffffff"
     bordercolor="#666666"
     borderopacity="1"
     objecttolerance="10"
     gridtolerance="10"
     guidetolerance="10"
     inkscape:pageopacity="0"
     inkscape:pageshadow="2"
     inkscape:window-width="1920"
     inkscape:window-height="1021"
     id="namedview5"
     showgrid="false"
     inkscape:zoom="0.43703704"
     inkscape:cx="-93.077898"
     inkscape:cy="479.16023"
     inkscape:window-x="0"
     inkscape:window-y="0"
     inkscape:window-maximized="1"
     inkscape:current-layer="svg2" />
  <path
     id="Auswahl"
     d="M 188.00,768.71            C 163.76,751.43 141.65,731.19 121.84,709.00              22.17,597.39 -8.83,440.49 38.33,299.00              48.46,268.61 61.89,239.10 79.05,212.00              139.02,117.32 231.36,50.64 341.00,26.42              379.54,17.91 410.85,16.55 450.00,17.00              450.00,17.00 461.00,17.96 461.00,17.96              498.43,19.59 533.57,27.86 569.00,39.67              607.67,52.56 642.87,71.67 676.00,95.29              705.85,116.57 733.72,143.39 756.60,172.00              801.82,228.53 832.17,297.32 842.73,369.00              846.89,397.28 847.04,419.69 847.00,448.00              847.00,448.00 845.96,460.00 845.96,460.00              845.96,460.00 845.96,469.00 845.96,469.00              844.11,487.12 841.51,505.21 837.58,523.00              825.24,578.86 801.86,629.50 768.71,676.00              746.97,706.50 720.24,734.05 691.00,757.40              682.00,764.59 657.67,782.28 648.00,787.00              648.00,787.00 648.00,756.00 648.00,756.00              648.00,753.59 647.78,750.42 649.02,748.30              650.46,745.84 655.55,742.63 658.00,740.85              658.00,740.85 676.00,726.75 676.00,726.75              699.90,707.00 723.41,682.16 741.58,657.00              772.65,613.96 795.12,564.88 806.58,513.00              811.93,488.75 814.01,466.57 816.00,442.00              816.00,442.00 717.00,442.00 717.00,442.00              717.00,442.00 717.00,422.00 717.00,422.00              717.00,422.00 816.00,422.00 816.00,422.00              812.44,378.06 807.33,341.76 791.58,300.00              751.98,195.02 668.61,110.77 563.00,72.05              520.28,56.39 486.77,51.63 442.00,48.00              442.00,48.00 442.00,147.00 442.00,147.00              442.00,147.00 422.00,147.00 422.00,147.00              422.00,147.00 422.00,48.00 422.00,48.00              377.23,51.63 343.72,56.39 301.00,72.05              195.39,110.77 112.02,195.02 72.42,300.00              56.67,341.76 51.56,378.06 48.00,422.00              48.00,422.00 147.00,422.00 147.00,422.00              147.00,422.00 147.00,442.00 147.00,442.00              147.00,442.00 48.00,442.00 48.00,442.00              49.99,466.57 52.07,488.75 57.42,513.00              68.88,564.88 91.35,613.96 122.42,657.00              140.59,682.16 164.10,707.00 188.00,726.75              188.00,726.75 206.00,740.85 206.00,740.85              208.45,742.63 213.54,745.84 214.98,748.30              216.22,750.42 216.00,753.59 216.00,756.00              216.00,756.00 216.00,787.00 216.00,787.00              209.07,783.62 194.75,773.52 188.00,768.71 Z            M 220.08,177.00            C 220.08,177.00 241.17,201.00 241.17,201.00              241.17,201.00 254.75,216.00 254.75,216.00              254.75,216.00 271.71,235.00 271.71,235.00              271.71,235.00 302.17,270.00 302.17,270.00              302.17,270.00 310.71,279.00 310.71,279.00              310.71,279.00 375.83,353.00 375.83,353.00              375.83,353.00 396.92,377.00 396.92,377.00              396.92,377.00 415.17,398.00 415.17,398.00              415.17,398.00 438.65,424.42 438.65,424.42              443.17,429.83 443.12,437.96 435.96,440.99              427.94,444.39 423.07,437.25 418.57,432.00              418.57,432.00 396.17,407.00 396.17,407.00              396.17,407.00 385.00,394.00 385.00,394.00              385.00,394.00 343.71,347.00 343.71,347.00              343.71,347.00 312.29,312.00 312.29,312.00              312.29,312.00 240.07,230.00 240.07,230.00              240.07,230.00 220.84,208.00 220.84,208.00              220.84,208.00 202.13,187.00 202.13,187.00              196.62,180.17 191.72,172.42 202.13,166.74              211.47,164.53 214.40,170.82 220.08,177.00 Z            M 460.02,756.00            C 460.02,756.00 466.00,737.00 466.00,737.00              466.00,737.00 469.56,729.02 469.56,729.02              469.56,729.02 481.00,728.00 481.00,728.00              481.00,728.00 473.02,754.00 473.02,754.00              473.02,754.00 454.14,815.00 454.14,815.00              454.14,815.00 448.33,834.00 448.33,834.00              448.33,834.00 444.49,841.98 444.49,841.98              444.49,841.98 433.00,843.00 433.00,843.00              433.00,843.00 460.02,756.00 460.02,756.00 Z            M 365.00,769.00            C 365.00,769.00 367.00,769.00 367.00,769.00              374.06,750.97 403.67,745.87 414.64,765.00              417.84,770.58 418.97,778.63 419.00,785.00              419.00,785.00 419.00,834.00 419.00,834.00              419.00,834.00 406.00,834.00 406.00,834.00              406.00,834.00 406.00,786.00 406.00,786.00              405.93,780.20 404.87,773.52 400.78,769.11              391.69,759.32 376.56,764.99 371.00,776.00              367.31,783.29 368.00,791.11 368.00,799.00              368.00,799.00 368.00,834.00 368.00,834.00              368.00,834.00 355.00,834.00 355.00,834.00              355.00,834.00 355.00,786.00 355.00,786.00              354.93,780.20 353.87,773.52 349.78,769.11              340.69,759.32 325.56,764.99 320.00,776.00              316.31,783.29 317.00,791.11 317.00,799.00              317.00,799.00 317.00,834.00 317.00,834.00              317.00,834.00 304.00,834.00 304.00,834.00              304.00,834.00 304.00,755.00 304.00,755.00              304.00,755.00 317.00,755.00 317.00,755.00              317.00,755.00 318.00,766.00 318.00,766.00              327.62,748.14 358.82,748.06 365.00,769.00 Z            M 525.00,823.83            C 531.91,821.84 538.85,815.56 534.15,808.04              530.68,802.51 522.93,800.91 517.00,799.58              503.53,796.54 489.60,793.81 489.04,777.00              488.93,773.74 489.29,771.08 490.39,768.00              495.68,753.18 515.61,751.50 529.00,753.59              532.60,754.15 541.87,755.50 543.98,758.51              545.03,760.00 544.96,762.25 545.00,764.00              545.00,764.00 545.00,770.00 545.00,770.00              535.32,765.89 524.67,762.21 514.00,764.68              509.22,765.78 503.58,768.77 502.47,774.00              500.59,782.87 512.67,786.15 519.00,787.58              534.27,791.01 550.40,794.29 548.91,814.00              548.70,816.73 547.97,819.51 546.81,822.00              539.96,836.77 517.71,837.30 504.00,834.74              500.61,834.11 490.93,832.21 489.02,829.49              487.97,828.00 488.04,825.75 488.00,824.00              488.00,824.00 488.00,817.00 488.00,817.00              499.49,821.94 512.27,827.50 525.00,823.83 Z"
     stroke-width="1"
     stroke="black"
     fill="none"
     style="fill:#008000" />
  <path
     style="fill:#000000;fill-opacity:1"
     d="m 378.99358,993.10659 0,-50.15664 8.89876,0 c 7.69365,0 8.89876,0.4203 8.89876,3.10358 0,6.99131 1.61188,8.08111 5.78304,3.90995 2.17562,-2.17562 6.4736,-5.00773 9.55106,-6.29358 6.56612,-2.7435 21.34577,-3.07105 27.8409,-0.61702 5.76421,2.17787 13.32652,9.24787 15.2832,14.28824 1.49877,3.86082 1.52443,3.85066 7.29181,-2.88723 7.82583,-9.14271 16.71218,-13.44709 27.95979,-13.54318 16.60385,-0.14184 28.56178,9.57639 32.37177,26.30858 0.91183,4.00445 1.67566,22.75251 1.69742,41.66241 l 0.0395,34.3815 -8.89876,0 -8.89876,0 -0.0355,-34.3815 c -0.0313,-30.27263 -0.40282,-35.19058 -3.10877,-41.15062 -6.76666,-14.90405 -25.61139,-15.73455 -36.3895,-1.60371 -5.67222,7.43665 -7.31266,18.95817 -7.35439,51.65303 l -0.0325,25.4828 -7.93133,0 -7.93134,0 -0.59702,-35.1905 c -0.49837,-29.37539 -1.0636,-36.13808 -3.4205,-40.92449 -7.01269,-14.2414 -24.37283,-14.99777 -35.6844,-1.55474 -6.41714,7.62634 -7.51692,14.54257 -7.52668,47.33313 l -0.009,30.3366 -8.89876,0 -8.89876,0 0,-50.15661 z"
     id="path4147"
     inkscape:connector-curvature="0"
     transform="scale(0.8,0.8)" />
  <path
     style="fill:#000000;fill-opacity:1"
     d="m 540.58559,1054.0442 c 0,-0.2612 26.22379,-84.76311 35.26543,-113.63715 5.41577,-17.29498 6.59635,-20.58248 10.63219,-29.60688 0.0801,-0.17916 15.20355,-1.44804 15.36264,-1.28895 0.0951,0.0951 -1.2579,4.81033 -3.0067,10.47827 -1.74879,5.66793 -10.09549,32.6938 -18.54822,60.05749 -8.45274,27.36372 -16.22186,52.57342 -17.26473,56.02172 -1.99804,6.6066 -6.60361,16.9793 -7.54841,17.0006 -0.29306,0.01 -3.17213,0.2742 -6.39793,0.5947 -6.39131,0.635 -8.49427,0.7291 -8.49427,0.3802 z"
     id="path4149"
     inkscape:connector-curvature="0"
     transform="scale(0.8,0.8)" />
  <path
     style="fill:#000000;fill-opacity:1"
     d="m 634.42705,1044.7127 c -8.87906,-1.2044 -18.34251,-3.7626 -21.62895,-5.8468 -2.95297,-1.8727 -3.20793,-2.7153 -3.37775,-11.1626 l -0.14784,-7.3543 7.42004,3.0307 c 12.94337,5.2868 20.32973,7.127 28.65571,7.1392 7.91029,0.012 14.01854,-1.7386 18.4072,-5.2742 3.4078,-2.7454 4.78949,-5.141 4.98764,-8.6476 0.13425,-2.376 0.002,-3.0988 -0.90479,-4.9526 -2.42765,-4.9619 -7.89791,-8.2045 -17.95005,-10.6403 -22.82997,-5.53188 -26.70424,-7.02971 -32.23664,-12.46295 -4.67667,-4.59286 -6.79814,-10.30739 -6.83242,-18.40425 -0.0224,-5.30149 0.62002,-8.30357 2.72673,-12.74141 5.21674,-10.98921 17.69557,-16.79081 36.10137,-16.7841 10.05295,0.004 22.71449,2.26333 27.82352,4.96559 1.96172,1.03759 2.64596,1.66809 3.37135,3.10658 0.82917,1.6443 0.9101,2.37267 0.9101,8.1909 0,3.51237 -0.0609,6.38612 -0.13535,6.38612 -0.0745,0 -1.85719,-0.70059 -3.96165,-1.55687 -9.91519,-4.03435 -16.53502,-5.6733 -24.21723,-5.99575 -8.09953,-0.33995 -13.64126,0.87594 -18.82284,4.12988 -6.28619,3.94761 -7.97515,10.95287 -3.78767,15.7101 3.50979,3.98734 7.72574,5.77724 21.50708,9.13094 16.59741,4.03899 22.86059,6.77682 28.03781,12.25619 3.83883,4.06283 5.46719,7.68443 6.23563,13.86843 0.79243,6.3769 -0.61661,13.7071 -3.65592,19.0193 -4.65539,8.1368 -14.50743,13.4813 -27.88553,15.1273 -4.72288,0.5811 -15.52029,0.4568 -20.63955,-0.2375 z"
     id="path4151"
     inkscape:connector-curvature="0"
     transform="scale(0.8,0.8)" />
</svg>
