<?xml version="1.0" encoding="UTF-8" standalone="no"?>
<svg
   xmlns:dc="http://purl.org/dc/elements/1.1/"
   xmlns:cc="http://creativecommons.org/ns#"
   xmlns:rdf="http://www.w3.org/1999/02/22-rdf-syntax-ns#"
   xmlns:svg="http://www.w3.org/2000/svg"
   xmlns="http://www.w3.org/2000/svg"
   xmlns:sodipodi="http://sodipodi.sourceforge.net/DTD/sodipodi-0.dtd"
   xmlns:inkscape="http://www.inkscape.org/namespaces/inkscape"
   width="12in"
   height="12in"
   viewBox="0 0 864 864"
   id="svg3383"
   version="1.1"
   inkscape:version="0.91 r13725"
   sodipodi:docname="LauncherIcon.svg"
   inkscape:export-filename="/home/familie/AndroidStudioProjects/VelocityCalculator/app/src/main/res/mipmap-xxxhdpi/ic_launcher.png"
   inkscape:export-xdpi="16"
   inkscape:export-ydpi="16">
  <metadata
     id="metadata3390">
    <rdf:RDF>
      <cc:Work
         rdf:about="">
        <dc:format>image/svg+xml</dc:format>
        <dc:type
           rdf:resource="http://purl.org/dc/dcmitype/StillImage" />
      </cc:Work>
    </rdf:RDF>
  </metadata>
  <defs
     id="defs3388" />
  <sodipodi:namedview
     pagecolor="#ffffff"
     bordercolor="#666666"
     borderopacity="1"
     objecttolerance="10"
     gridtolerance="10"
     guidetolerance="10"
     inkscape:pageopacity="0"
     inkscape:pageshadow="2"
     inkscape:window-width="1920"
     inkscape:window-height="1021"
     id="namedview3386"
     showgrid="false"
     inkscape:zoom="0.54800776"
     inkscape:cx="29.836062"
     inkscape:cy="637.52166"
     inkscape:window-x="0"
     inkscape:window-y="0"
     inkscape:window-maximized="1"
     inkscape:current-layer="svg3383" />
  <path
     id="Auswahl"
     fill="none"
     stroke="black"
     stroke-width="1"
     d="M 188.00,768.71            C 163.76,751.43 141.65,731.19 121.84,709.00              22.17,597.39 -8.83,440.49 38.33,299.00              48.46,268.61 61.89,239.10 79.05,212.00              139.02,117.32 231.36,50.64 341.00,26.42              379.54,17.91 410.85,16.55 450.00,17.00              450.00,17.00 461.00,17.96 461.00,17.96              498.43,19.59 533.57,27.86 569.00,39.67              607.67,52.56 642.87,71.67 676.00,95.29              705.85,116.57 733.72,143.39 756.60,172.00              801.82,228.53 832.17,297.32 842.73,369.00              846.89,397.28 847.04,419.69 847.00,448.00              847.00,448.00 845.96,460.00 845.96,460.00              845.96,460.00 845.96,469.00 845.96,469.00              844.11,487.12 841.51,505.21 837.58,523.00              825.24,578.86 801.86,629.50 768.71,676.00              746.97,706.50 720.24,734.05 691.00,757.40              682.00,764.59 657.67,782.28 648.00,787.00              648.00,787.00 648.00,756.00 648.00,756.00              648.00,753.59 647.78,750.42 649.02,748.30              650.46,745.84 655.55,742.63 658.00,740.85              658.00,740.85 676.00,726.75 676.00,726.75              699.90,707.00 723.41,682.16 741.58,657.00              772.65,613.96 795.12,564.88 806.58,513.00              811.93,488.75 814.01,466.57 816.00,442.00              816.00,442.00 717.00,442.00 717.00,442.00              717.00,442.00 717.00,422.00 717.00,422.00              717.00,422.00 816.00,422.00 816.00,422.00              812.44,378.06 807.33,341.76 791.58,300.00              751.98,195.02 668.61,110.77 563.00,72.05              520.28,56.39 486.77,51.63 442.00,48.00              442.00,48.00 442.00,147.00 442.00,147.00              442.00,147.00 422.00,147.00 422.00,147.00              422.00,147.00 422.00,48.00 422.00,48.00              377.23,51.63 343.72,56.39 301.00,72.05              195.39,110.77 112.02,195.02 72.42,300.00              56.67,341.76 51.56,378.06 48.00,422.00              48.00,422.00 147.00,422.00 147.00,422.00              147.00,422.00 147.00,442.00 147.00,442.00              147.00,442.00 48.00,442.00 48.00,442.00              49.99,466.57 52.07,488.75 57.42,513.00              68.88,564.88 91.35,613.96 122.42,657.00              140.59,682.16 164.10,707.00 188.00,726.75              188.00,726.75 206.00,740.85 206.00,740.85              208.45,742.63 213.54,745.84 214.98,748.30              216.22,750.42 216.00,753.59 216.00,756.00              216.00,756.00 216.00,787.00 216.00,787.00              209.07,783.62 194.75,773.52 188.00,768.71 Z            M 434.98,441.35            C 423.61,444.86 415.90,428.43 429.02,422.65              443.78,419.95 445.74,438.02 434.98,441.35 Z            M 460.02,756.00            C 460.02,756.00 466.00,737.00 466.00,737.00              466.00,737.00 469.56,729.02 469.56,729.02              469.56,729.02 481.00,728.00 481.00,728.00              481.00,728.00 473.02,754.00 473.02,754.00              473.02,754.00 454.14,815.00 454.14,815.00              454.14,815.00 448.33,834.00 448.33,834.00              448.33,834.00 444.49,841.98 444.49,841.98              444.49,841.98 433.00,843.00 433.00,843.00              433.00,843.00 460.02,756.00 460.02,756.00 Z            M 365.00,769.00            C 365.00,769.00 367.00,769.00 367.00,769.00              374.06,750.97 403.67,745.87 414.64,765.00              417.84,770.58 418.97,778.63 419.00,785.00              419.00,785.00 419.00,834.00 419.00,834.00              419.00,834.00 406.00,834.00 406.00,834.00              406.00,834.00 406.00,786.00 406.00,786.00              405.93,780.20 404.87,773.52 400.78,769.11              391.69,759.32 376.56,764.99 371.00,776.00              367.31,783.29 368.00,791.11 368.00,799.00              368.00,799.00 368.00,834.00 368.00,834.00              368.00,834.00 355.00,834.00 355.00,834.00              355.00,834.00 355.00,786.00 355.00,786.00              354.93,780.20 353.87,773.52 349.78,769.11              340.69,759.32 325.56,764.99 320.00,776.00              316.31,783.29 317.00,791.11 317.00,799.00              317.00,799.00 317.00,834.00 317.00,834.00              317.00,834.00 304.00,834.00 304.00,834.00              304.00,834.00 304.00,755.00 304.00,755.00              304.00,755.00 317.00,755.00 317.00,755.00              317.00,755.00 318.00,766.00 318.00,766.00              327.62,748.14 358.82,748.06 365.00,769.00 Z            M 525.00,823.83            C 531.91,821.84 538.85,815.56 534.15,808.04              530.68,802.51 522.93,800.91 517.00,799.58              503.53,796.54 489.60,793.81 489.04,777.00              488.93,773.74 489.29,771.08 490.39,768.00              495.68,753.18 515.61,751.50 529.00,753.59              532.60,754.15 541.87,755.50 543.98,758.51              545.03,760.00 544.96,762.25 545.00,764.00              545.00,764.00 545.00,770.00 545.00,770.00              535.32,765.89 524.67,762.21 514.00,764.68              509.22,765.78 503.58,768.77 502.47,774.00              500.59,782.87 512.67,786.15 519.00,787.58              534.27,791.01 550.40,794.29 548.91,814.00              548.70,816.73 547.97,819.51 546.81,822.00              539.96,836.77 517.71,837.30 504.00,834.74              500.61,834.11 490.93,832.21 489.02,829.49              487.97,828.00 488.04,825.75 488.00,824.00              488.00,824.00 488.00,817.00 488.00,817.00              499.49,821.94 512.27,827.50 525.00,823.83 Z" />
  <path
     style="fill:#008000"
     d=""
     id="path4210"
     inkscape:connector-curvature="0"
     transform="scale(0.8,0.8)" />
  <path
     style="fill:#008000"
     d="m 532.93113,547.22139 c -2.00727,-2.00728 -3.64958,-5.2919 -3.64958,-7.29917 0,-4.69987 6.24888,-10.94875 10.94875,-10.94875 4.69987,0 10.94875,6.24888 10.94875,10.94875 0,4.69987 -6.24888,10.94875 -10.94875,10.94875 -2.00727,0 -5.2919,-1.64231 -7.29917,-3.64958 z"
     id="path4212"
     inkscape:connector-curvature="0"
     transform="scale(0.8,0.8)" />
  <path
     style="fill:#008000"
     d="M 246.2817,966.66488 C 178.72056,920.33227 120.13815,854.51448 82.468544,782.61951 3.6453619,632.1802 2.5542255,454.04256 79.529098,302.72906 103.30626,255.98905 134.81556,213.23852 175.11338,173.04417 203.60421,144.6265 221.61043,129.80509 253.738,108.32606 314.60794,67.631206 380.44198,41.807547 456.28988,28.874292 c 29.10809,-4.963385 101.5167,-6.912325 136.34893,-3.669949 115.75931,10.77552 228.71941,64.030736 311.72048,146.961127 28.46118,28.43693 43.41053,46.42604 64.49974,77.61487 44.04647,65.14032 70.10597,131.68992 83.37187,212.91107 1.9634,12.02113 3.2196,34.75386 3.814,69.01925 0.9714,55.99824 -1.0537,78.20927 -11.3505,124.49179 -24.1448,108.52675 -89.3618,213.79597 -176.45373,284.82064 -16.25281,13.2544 -52.1219,38.67393 -54.57216,38.67393 -0.92968,0 -1.43175,-9.76184 -1.14422,-22.24651 l 0.51237,-22.24651 20.07271,-15.54509 c 107.18184,-83.00576 175.33933,-208.70572 186.11333,-343.24086 0.6028,-7.52726 1.506,-16.35469 2.007,-19.61651 l 0.911,-5.93057 -62.12563,0 -62.1256,0 0,-10.94875 0,-10.94875 62.06449,0 62.06444,0 -0.8988,-6.84297 c -0.4943,-3.76363 -1.8114,-15.87569 -2.9268,-26.91568 C 1006.7418,381.87628 959.31583,281.8679 878.82001,201.31586 839.4117,161.88 803.01468,135.40474 754.64332,110.98948 694.2617,80.512073 648.13647,68.139474 561.6716,59.226878 l -10.49255,-1.081547 0,62.058859 0,62.05886 -10.94875,0 -10.94875,0 0,-62.10577 0,-62.105771 -8.66776,0.973751 c -4.76727,0.535564 -16.87932,1.833406 -26.91568,2.884098 -115.9773,12.141489 -218.90926,62.441332 -299.42267,146.319102 -36.3613,37.88071 -62.55939,75.56687 -86.60355,124.5799 -27.588338,56.23771 -40.847302,106.71805 -48.288715,183.84776 l -1.188368,12.31735 62.188163,0 62.18816,0 0,10.94875 0,10.94875 -62.18816,0 -62.188163,0 1.176201,12.31734 c 5.297288,55.474 11.286978,86.10271 24.890485,127.27922 9.878597,29.90157 33.126887,79.19691 49.623567,105.22111 29.67054,46.80649 69.91215,90.66902 115.40218,125.78601 l 19.0491,14.70534 0,21.7585 c 0,11.96719 -0.68658,21.75853 -1.52573,21.75853 -0.83917,0 -10.07717,-5.86446 -20.52891,-13.03214 z"
     id="path4214"
     inkscape:connector-curvature="0"
     transform="scale(0.8,0.8)" />
  <path
     style="fill:#000000"
     d="m 381.47342,993.38295 0,-48.35698 6.19154,0 c 6.5991,0 8.4068,2.25039 8.4068,10.46553 0,4.6919 0.001,4.69161 6.31377,-1.80843 7.77107,-8.00161 16.84884,-11.17534 28.70594,-10.03602 10.37123,0.99654 17.35978,5.48525 21.44259,13.77245 3.63382,7.37585 5.53792,7.28375 10.58747,-0.51211 6.14512,-9.48728 16.92116,-14.27464 30.00156,-13.32849 12.05977,0.87233 18.61147,4.75831 24.29731,14.41136 3.28167,5.5714 3.70866,10.10516 4.2356,44.97284 l 0.58602,38.7768 -6.51659,0 -6.51659,0 -0.0102,-32.39 c -0.006,-17.81455 -0.85077,-35.41663 -1.87817,-39.11575 -5.73217,-20.63846 -32.76296,-21.53636 -44.54518,-1.47968 -3.33452,5.67631 -3.8178,10.05636 -4.37848,39.68303 l -0.63023,33.3024 -6.21274,0 -6.21273,0 -0.0102,-32.39 c -0.006,-17.81455 -0.85077,-35.41663 -1.87817,-39.11575 -5.86359,-21.11166 -34.15403,-21.45981 -44.64384,-0.54941 -3.1529,6.285 -3.73178,11.68314 -4.25356,39.66516 l -0.60397,32.39 -6.23899,0 -6.239,0 0,-48.35695 z"
     id="path4216"
     inkscape:connector-curvature="0"
     transform="scale(0.8,0.8)" />
  <path
     style="fill:#000000"
     d=""
     id="path4218"
     inkscape:connector-curvature="0"
     transform="scale(0.8,0.8)" />
  <path
     style="fill:#000000"
     d=""
     id="path4220"
     inkscape:connector-curvature="0"
     transform="scale(0.8,0.8)" />
  <path
     style="fill:#000000"
     d="m 543.87988,1051.5356 c 0,-2.0113 36.62595,-119.40622 40.4886,-129.77572 3.19707,-8.58272 4.12856,-9.58016 8.94665,-9.58016 4.69333,0 5.24455,0.53184 4.32958,4.17739 -3.51211,13.99335 -40.81414,131.38419 -42.12852,132.57999 -2.19836,2 -11.63631,4.1076 -11.63631,2.5985 z"
     id="path4222"
     inkscape:connector-curvature="0"
     transform="scale(0.8,0.8)" />
  <path
     style="fill:#000000"
     d=""
     id="path4224"
     inkscape:connector-curvature="0"
     transform="scale(0.8,0.8)" />
  <path
     style="fill:#000000"
     d="m 628.7327,1041.807 c -14.87669,-3.2369 -17.33553,-4.8974 -17.33553,-11.7068 l 0,-6.2556 12.31735,4.3472 c 24.02705,8.48 43.36066,4.129 47.03251,-10.5844 1.65965,-6.6504 -6.52819,-14.9506 -17.5475,-17.78838 -23.53366,-6.0605 -28.14236,-7.92184 -33.91993,-13.69941 -5.19814,-5.19815 -6.05667,-7.31335 -6.05081,-14.90787 0.009,-12.02289 5.10157,-19.94752 15.88261,-24.71649 7.17964,-3.1759 11.06167,-3.62246 25.10478,-2.88792 19.89233,1.0405 24.69829,3.10444 24.69829,10.60681 0,2.97559 -0.20529,5.3978 -0.4562,5.38269 -0.25091,-0.0151 -3.74082,-1.2108 -7.75537,-2.65709 -10.29168,-3.70771 -27.77342,-3.50743 -35.47476,0.40641 -8.49619,4.31779 -10.97223,11.85133 -6.05835,18.43295 3.77773,5.05985 7.34439,6.63735 29.55329,13.07117 18.51526,5.36379 25.66576,12.34703 25.66576,25.06543 0,11.1522 -5.39844,20.0343 -15.05482,24.7698 -7.8264,3.838 -29.61089,5.5129 -40.60132,3.1215 z"
     id="path4226"
     inkscape:connector-curvature="0"
     transform="scale(0.8,0.8)" />
</svg>
